<?xml version="1.0" encoding="UTF-8"?>
<svg id="Layer_1" data-name="Layer 1" xmlns="http://www.w3.org/2000/svg" viewBox="0 0 150.43 141.94">
  <defs>
    <style>
      .cls-1 {
        fill: #3b3b3b;
      }
    </style>
  </defs>
  <g>
    <path class="cls-1" d="M107.75,104.45c-.09-5.53-3.41-9.73-.43-14.43,1.24-1.96,3.53-2.89,5.69-2.37.3.07.6.16.89.27-.28-1.53-.33-3.04-.02-4.4.43-1.9,1.54-3.41,3.18-4.36,2.14-1.23,4.45-.88,6.69.26-.09-2.78,1.22-5.31,3.42-6.59,1.99-1.16,7.61-.47,10.7,3.62.65-11.91-19.51-12.6-18.26-22.04.22-1.66,1.16-2.96,2.57-3.78.57-.33,1.22-.58,1.95-.75-2.19-1.82-4.01-3.93-4.66-6.23-.53-1.88-.24-3.72.84-5.32.87-1.28,2.64-2.79,5.95-2.78.36,0,.72.02,1.09.06-.53-1.68-.29-3.43,1.22-5.28,1.37-1.66,4.57-2.2,8.17-1.35.99.23,2.4.68,3.96,1.5-2.85-8.58-8.64-21.54-18.75-26.69-19.52-9.95-35.06,2.3-40.84,8.03-12.34,12.24-18.2,30.54-13.07,40.8,2.24,4.48,6.1,6.86,11.47,7.05,12.28.46,28.18-10.35,32.54-17.6.58-.96,1.77-1.44,2.82-1.05,1.39.52,1.92,2.14,1.19,3.36-3.62,6.09-12.27,12.81-21.57,16.69,8.94,13.16,8.03,29.85-2.55,39.12-4.75,4.17-10.75,6.18-16.99,6.18-5.1,0-10.35-1.35-15.21-3.96-.02-.01-.04-.01-.06-.03-.06-.03-.11-.07-.17-.11-1.49-.82-2.94-1.74-4.34-2.8-10.05-6.99-16.81-15.51-18.82-23.89-1-4.18-1.35-5.02-1.33-8.02.05-5.66-.08-8.55-2.82-9-2.29-.38-3.9,1.67-4.88,4.45-.5,1.41-.75,2.92-.87,4.41-.42,5.31-1.19,6.59-2,6.5-2.46-.27-3.23-2.25-2.35-6.77.23-1.18,2.9-11.44-2.98-11.44-2.06,0-5.59,4.6-4.83,15.1,0,.04,0,.08,0,.12,0,.08,0,.16,0,.25,0,.07-.02.15-.03.22-.01.07-.03.15-.05.22-.02.07-.04.15-.07.22-.03.07-.06.13-.09.2-.03.07-.07.13-.11.2-.04.06-.08.12-.13.18-.05.06-.09.11-.14.17-.05.05-.11.11-.16.16-.06.05-.12.1-.18.14-.06.04-.12.08-.18.12-.07.04-.15.08-.23.11-.03.02-.06.04-.1.05-.03.01-.06.01-.09.02-.08.03-.16.05-.24.06-.08.02-.16.03-.24.04-.03,0-.06.01-.09.02-.04,0-.08,0-.12,0-.08,0-.16,0-.24,0-.08,0-.16-.02-.24-.03-.06-.01-.12-.03-.19-.04-.09-.02-.17-.05-.25-.08-.05-.02-.11-.05-.16-.07-.08-.04-.15-.08-.23-.13-.05-.03-.1-.07-.15-.11-.07-.05-.13-.11-.19-.16-.05-.05-.09-.09-.14-.14-.06-.06-.11-.13-.15-.2-.04-.05-.07-.11-.11-.17-.04-.08-.08-.16-.12-.24-.01-.03-.04-.06-.05-.1-.01-.03-.02-.07-.03-.1-.02-.07-.04-.13-.06-.2-.65-1.91.14-2.55.47-6.54.15-1.85.56-4.67-1.82-5.08-2.38-.41-4.05,1.94-5.51,6.43-.96,2.93-1.69,7.05-1.66,11.72.02.16.02.32,0,.48.14,8.43,2.81,18.6,11.23,27.09,13.41,13.53,29.33,18.85,38.1,21.51,11.76,3.56,57.7,7.93,57.19-22.66ZM86.18,31.13c-1.04,1.44-3.25,3.48-5.69,3.48-.85,0-1.73-.25-2.6-.86-1.13-.79-1.84-1.87-2.04-3.12-.39-2.34,1.07-4.44,1.24-4.67.5-.69,1.46-.85,2.16-.35.69.5.84,1.46.35,2.15-.25.35-.86,1.46-.7,2.37.05.27.18.68.77,1.09,1.68,1.18,3.98-1.87,4.01-1.91.5-.69,1.47-.84,2.16-.34.69.5.84,1.46.35,2.15ZM97.81,38.16c-1.04,1.44-3.25,3.48-5.69,3.48-.85,0-1.73-.25-2.6-.86-1.13-.79-1.83-1.87-2.04-3.12-.39-2.34,1.07-4.44,1.24-4.67.5-.69,1.47-.85,2.16-.35.69.5.84,1.46.35,2.15-.25.35-.85,1.46-.7,2.37.05.27.18.68.77,1.09,1.68,1.18,3.98-1.87,4.01-1.91.5-.69,1.47-.84,2.16-.34.69.5.84,1.46.35,2.15Z"/>
    <path class="cls-1" d="M62.32,50.21c.38,1.58.89,3.08,1.59,4.47,3.01,6.03,8.35,9.35,15.44,9.61.29.01.58.02.88.02,3.11,0,6.42-.6,9.73-1.6,8.35,11.38,8,26.06-1.06,33.99-7.18,6.29-17.88,6.55-27.05,1.57-1.24-.74-2.44-1.51-3.6-2.31-1.85-1.36-3.62-2.94-5.22-4.76-10.09-11.52-10.42-27.79-.73-36.27,2.79-2.45,6.23-4.06,10.01-4.71ZM75.79,76.17c.17.45,1.7,4.43,4.48,5.54.5.2,1,.3,1.51.3.64,0,1.27-.15,1.89-.46,3.78-1.88,2.83-6.72,1.68-9.28-.35-.78-1.27-1.12-2.04-.77-.78.35-1.12,1.26-.77,2.04.02.04,1.8,4.23-.23,5.24-.32.16-.59.18-.89.06-1.19-.47-2.35-2.72-2.73-3.74-.3-.8-1.18-1.21-1.98-.91-.8.29-1.21,1.18-.91,1.98ZM62.97,81.28c.17.45,1.7,4.43,4.48,5.54.5.2,1,.3,1.51.3.64,0,1.27-.15,1.89-.46,3.78-1.88,2.83-6.72,1.68-9.28-.35-.78-1.27-1.12-2.04-.77-.78.35-1.12,1.26-.77,2.04.02.04,1.8,4.23-.23,5.24-.32.16-.59.18-.89.06-1.19-.47-2.35-2.72-2.73-3.74-.3-.8-1.18-1.21-1.98-.91-.8.29-1.21,1.18-.91,1.98Z"/>
  </g>
  <g>
    <path class="cls-1" d="M20.61,51.42c6.46-.35,12.93,1.15,17.43,6.24,2.42,2.74,5.88,2.33,6.81.9,2.35-3.65-5.51-12.06-8.29-14.94,0-.08-.04-.16-.04-.25,0,0,0-.01,0-.02.01-.29.08-.57.2-.84,0,0,0,0,0-.01.06-.13.14-.26.23-.39.28-.39.67-.67,1.09-.82,0,0,.01,0,.02,0,.28-.1.57-.14.86-.13,0,0,0,0,.01,0,.29.01.58.08.85.21,0,0,0,0,0,0,.13.06.26.14.39.23,3.66,2.37,7.99,8.68,10.3,9.64,2.48,1.02,5.17-.73,4.01-4.95-.38-1.39-3.61-6.77-9.58-10.06-.51-.39-.74-1.19.67-1.87,1.41-.68,2.63.1,2.71.14,2.63,1.46,6.33,6.07,8.04,7.67.82.77,2.97,2.73,5.16,1.57,2.19-1.16.74-7.39-3.2-11.61-2.53-2.71-8.2-10.24-22.83-8.77C24.36,24.48,0,35.84,0,64.81c1.76-7.83,13.93-13.03,20.61-13.39Z"/>
    <path class="cls-1" d="M131.17,76.9c-1.5-.62-3.38.17-3.79,1.41-.43,1.33.11,2.94,1.65,4.16,4.95,3.95,4.53,9.41,4.09,10.63-.88,2.5-2.24.13-2.24.13-.01-.02-.03-.04-.04-.06-.12-.16-1.76-3.51-3.54-6.03-1.33-1.89-5.16-4.53-7.94-3.98-1.39.28-2.05,1.94-2.04,2.61.07,2.8,2.51,3.05,4.74,6.35,2.23,3.3,1.44,7.25.29,8.44-.85.88-1.98.87-2.16-.72-.11-.95-.38-1.93-.82-3-.65-1.58-1.56-3.08-2.8-4.25-3.07-2.9-5.4-1.71-5.85-1-1.47,2.33,2.01,4.63,2.08,10.99.08,6.92-1.08,36.66-52.62,30.01,11.55,5.5,28.44,11.85,39.27,8.34,18.65-6.04,38.63-28.98,40.34-46.32,0,0,0-.02,0-.03,0,0,0,0,0-.01.12-1.02.19-1.99.25-2.94-.04-3.62-.68-11.32-8.88-14.74Z"/>
    <path class="cls-1" d="M143.18,88.76c.07-12.68-.59-19.59-7.03-24.97-6.44-5.39-13.03-5.39-11.81-9,.91-2.71,7.3-1.56,11.04-.21,2.32.83,2.68-.45,2.69-.54.31-2.27-2.34-3.14-6.62-4.69-5.22-1.88-8.6-4.91-8.19-7.06,1.01-5.25,12.17,1.02,15.78,4.26,1.3,1.17,2.47-.31,1.67-1.62-2.21-3.64-5.96-4.75-8.4-7.43-1.09-1.2-1.58-2.68-.25-4.1,1.86-1.98,13.07,1.46,16.51,14.71,5,19.23-1.22,34.47-5.39,40.64Z"/>
  </g>
</svg>