<svg width="728" height="194" viewBox="0 0 728 194" fill="none" xmlns="http://www.w3.org/2000/svg">
<path d="M634.1 39.6L631.5 41.7C623.1 48.7 610.9 48.7 602.4 41.7L599.8 39.6V111.8H634V39.6H634.1ZM62.2 1.8V44.8H46V1.8H0.5V111.8H46V90.3H62.2V111.7H107.7V1.8H62.2ZM542 25.7H509.6V111.8H544.1V52.3L542 25.7ZM544.1 62.4C544.1 62.4 544.1 54.7 549.2 54.4C554 54.2 553.7 61.4 553.7 61.4V111.8H590.6C590.6 111.8 591.1 61 590.6 51.3C590.1 41.6 586.2 23.6 566.5 23.6C546.8 23.6 544.2 52.3 544.2 52.3V62.4H544.1ZM308.9 25.7H276.5V111.8H311V52.3L308.9 25.7ZM209.4 64.7V111.8H249.1C249.1 111.8 249.1 115.3 249.1 84.1C249.1 71.1 237.9 66.3 231.5 59.4C222.9 50.1 221.2 36.2 234.1 23.8C234.6 23.4 234.1 22.6 233.5 22.7C227 24.4 209.4 30.6 209.4 47.3C209.4 67.7 209.4 64.8 209.4 64.7ZM202.1 25.7V111.8H170.9L168.2 90.6C164.8 99.4 157.5 112.9 143.7 112.8C123.2 112.6 115.4 88 115.4 66C115.4 44 124.3 24.4 142.7 23.7C156.2 23.2 164.1 33 167.6 38.8V37.8L169.6 25.5H202.1V25.7ZM167.7 84.8V41.5C166.4 39.8 164.5 38.2 162.4 38.2C158.2 38.2 155.2 52.1 155.2 67.5C155.2 82.9 158.1 91.3 163.6 91C165.3 90.9 166.6 88.3 167.7 84.8ZM726.7 25.7V111.8H695.5L692.8 90.6C689.4 99.4 682.1 112.9 668.3 112.8C647.8 112.6 640 88 640 66C640 44 648.9 24.4 667.3 23.7C680.8 23.2 688.7 33 692.2 38.8V37.8L694.2 25.5H726.7V25.7ZM692.3 84.8V41.5C691 39.8 689.1 38.2 687 38.2C682.8 38.2 679.8 52.1 679.8 67.5C679.8 82.9 682.7 91.3 688.2 91C689.9 90.9 691.3 88.3 692.3 84.8ZM310.9 62.4C310.9 62.4 310.9 54.7 316 54.4C320.8 54.2 320.5 61.4 320.5 61.4V111.8H357.4C357.4 111.8 357.9 61 357.4 51.3C356.9 41.6 353 23.6 333.3 23.6C313.6 23.6 311 52.3 311 52.3V62.4H310.9ZM357.2 62.4C357.2 62.4 357.2 54.7 362.3 54.4C367.1 54.2 366.8 61.4 366.8 61.4V111.8H403.7C403.7 111.8 404.2 61 403.7 51.3C403.2 41.6 399.3 23.6 379.6 23.6C359.9 23.6 357.3 52.3 357.3 52.3V62.4H357.2ZM501 67.9C501 92.4 481.1 112.3 456.6 112.3C432.1 112.3 412.2 92.4 412.2 67.9C412.2 43.4 432.1 23.5 456.6 23.5C481.1 23.5 501 43.4 501 67.9ZM461.3 67.9C461.3 44.9 459.2 26.3 456.6 26.3C454 26.3 451.9 44.9 451.9 67.9C451.9 90.9 454 109.5 456.6 109.5C459.2 109.5 461.3 90.9 461.3 67.9ZM617 0C606.3 0 597.6 8.7 597.6 19.4C597.6 30.1 606.3 38.8 617 38.8C627.7 38.8 636.4 30.1 636.4 19.4C636.4 8.7 627.7 0 617 0Z" fill="#F0F0F0"/>
<path d="M250.7 61.4001C261.138 61.4001 269.6 52.9383 269.6 42.5001C269.6 32.0619 261.138 23.6001 250.7 23.6001C240.262 23.6001 231.8 32.0619 231.8 42.5001C231.8 52.9383 240.262 61.4001 250.7 61.4001Z" fill="#F0F0F0"/>
<path d="M8.70009 146.5V191.7H1.1001V146.5H8.70009ZM4.20009 163.9H36.5001V170.9H4.20009V163.9ZM39.1001 146.5V191.7H31.5001V146.5H39.1001Z" fill="#F0F0F0"/>
<path d="M59.3003 146.5V191.7H51.8003V146.5H59.3003ZM56.5003 146.5H79.3003V153.2H56.5003V146.5ZM56.5003 164.2H78.0003V170.8H56.5003V164.2ZM56.5003 185H79.3003V191.7H56.5003V185Z" fill="#F0F0F0"/>
<path d="M101.4 175.9L101.3 177.6L94.9999 191.7H86.3999L108.5 144L130.7 191.7H122L115.9 177.9L115.8 176L108.6 159.2L101.4 175.9ZM98.0999 173.6H119.1L120.5 180.1H96.5999L98.0999 173.6Z" fill="#F0F0F0"/>
<path d="M146 146.5V184.9H164V191.7H138.4V146.5H146Z" fill="#F0F0F0"/>
<path d="M179.8 146.5V191.7H172V146.5H179.8Z" fill="#F0F0F0"/>
<path d="M232.9 146.5V194L199.9 161.4V191.8H192.4V144.3L225.4 176.9V146.5H232.9Z" fill="#F0F0F0"/>
<path d="M267.1 168.1H288.9C289 171.4 288.6 174.5 287.6 177.5C286.7 180.5 285.2 183.1 283.3 185.3C281.4 187.6 279.1 189.4 276.3 190.7C273.5 192 270.3 192.7 266.7 192.7C263.3 192.7 260.2 192.1 257.3 191C254.4 189.9 251.9 188.2 249.8 186.1C247.7 184 246 181.5 244.9 178.6C243.7 175.7 243.2 172.6 243.2 169.1C243.2 165.7 243.8 162.5 245 159.6C246.2 156.7 247.9 154.3 250 152.2C252.2 150.1 254.7 148.5 257.6 147.4C260.5 146.3 263.6 145.7 267 145.7C270 145.7 272.7 146.1 275.1 146.9C277.5 147.7 279.7 148.9 281.6 150.4C283.5 151.9 285.1 153.7 286.4 155.8L280.2 159.9C279 157.7 277.2 156 275 154.7C272.8 153.4 270.1 152.8 267 152.8C264.1 152.8 261.5 153.5 259.1 154.8C256.7 156.2 254.8 158.1 253.4 160.5C252 162.9 251.3 165.8 251.3 169.1C251.3 172.4 252 175.2 253.4 177.7C254.8 180.2 256.7 182.1 259 183.5C261.4 184.9 264 185.6 267 185.6C269 185.6 270.8 185.3 272.4 184.8C274 184.2 275.4 183.4 276.5 182.4C277.7 181.4 278.6 180.2 279.4 178.8C280.2 177.5 280.8 176 281.1 174.5H267.2V168.1H267.1Z" fill="#F0F0F0"/>
<path d="M329 146.5V191.7H321.2V146.5H329Z" fill="#F0F0F0"/>
<path d="M382.1 146.5V194L349.1 161.4V191.8H341.6V144.3L374.6 176.9V146.5H382.1Z" fill="#F0F0F0"/>
<path d="M415.8 159.7C417 156.9 418.6 154.4 420.7 152.3C422.8 150.2 425.3 148.6 428.2 147.4C431.1 146.2 434.2 145.6 437.5 145.6C440.9 145.6 444 146.2 446.9 147.4C449.7 148.6 452.2 150.2 454.4 152.3C456.5 154.4 458.2 156.9 459.3 159.7C460.5 162.5 461 165.7 461 169.1C461 172.5 460.4 175.6 459.3 178.5C458.1 181.4 456.5 183.9 454.4 186C452.3 188.1 449.8 189.8 447 190.9C444.2 192.1 441 192.7 437.6 192.7C434.2 192.7 431.1 192.1 428.3 190.9C425.4 189.7 422.9 188.1 420.8 186C418.7 183.9 417.1 181.4 415.9 178.5C414.7 175.6 414.2 172.5 414.2 169.1C414.1 165.7 414.7 162.6 415.8 159.7ZM424.2 177.4C425.5 179.8 427.4 181.7 429.7 183.1C432 184.5 434.6 185.2 437.6 185.2C440.6 185.2 443.3 184.5 445.6 183.1C447.9 181.7 449.7 179.8 451 177.4C452.3 175 453 172.2 453 169.1C453 166 452.4 163.2 451.1 160.8C449.8 158.4 448 156.5 445.7 155.1C443.4 153.7 440.7 153 437.7 153C434.7 153 432.1 153.7 429.8 155.1C427.5 156.5 425.7 158.4 424.3 160.8C423 163.2 422.3 166 422.3 169.1C422.3 172.2 422.8 175 424.2 177.4Z" fill="#F0F0F0"/>
<path d="M511.6 146.5V194L478.6 161.4V191.8H471.1V144.3L504.1 176.9V146.5H511.6Z" fill="#F0F0F0"/>
<path d="M531.8 146.5V191.7H524.3V146.5H531.8ZM529 146.5H551.8V153.2H529V146.5ZM529 164.2H550.5V170.8H529V164.2ZM529 185H551.8V191.7H529V185Z" fill="#F0F0F0"/>
<path d="M604.3 146.5V194L571.3 161.4V191.8H563.8V144.3L596.8 176.9V146.5H604.3Z" fill="#F0F0F0"/>
<path d="M624.4 146.5V191.7H616.9V146.5H624.4ZM621.7 146.5H644.5V153.2H621.7V146.5ZM621.7 164.2H643.2V170.8H621.7V164.2ZM621.7 185H644.5V191.7H621.7V185Z" fill="#F0F0F0"/>
<path d="M662.6 181.7C663.7 183 665 184 666.4 184.7C667.8 185.4 669.3 185.8 671 185.8C673.1 185.8 674.7 185.2 676 184.1C677.3 183 677.9 181.5 677.9 179.7C677.9 178.1 677.5 176.7 676.7 175.7C675.9 174.7 674.8 173.8 673.3 173.1C671.8 172.4 670.2 171.7 668.3 171C667.2 170.6 665.9 170.1 664.6 169.4C663.2 168.7 661.9 167.9 660.7 166.9C659.5 165.9 658.4 164.6 657.6 163.2C656.8 161.7 656.4 159.9 656.4 157.8C656.4 155.4 657 153.3 658.3 151.4C659.5 149.6 661.2 148.1 663.4 147.1C665.6 146.1 668 145.5 670.7 145.5C673.4 145.5 675.7 146 677.7 147C679.7 148 681.4 149.2 682.7 150.6C684.1 152.1 685.1 153.6 685.9 155.2L679.8 158.7C679.2 157.6 678.5 156.5 677.6 155.6C676.7 154.6 675.7 153.9 674.6 153.3C673.5 152.7 672.1 152.4 670.6 152.4C668.5 152.4 666.9 152.9 665.9 153.9C664.9 154.9 664.4 156 664.4 157.3C664.4 158.5 664.8 159.5 665.5 160.4C666.2 161.3 667.3 162.2 668.8 163C670.3 163.8 672.3 164.7 674.7 165.5C676.1 166 677.4 166.6 678.8 167.3C680.2 168 681.4 168.9 682.5 170C683.6 171.1 684.5 172.4 685.2 173.8C685.9 175.3 686.2 177 686.2 179C686.2 181.1 685.8 183 684.9 184.7C684 186.4 682.9 187.8 681.5 188.9C680.1 190 678.5 190.9 676.7 191.5C674.9 192.1 673 192.4 671.1 192.4C668.5 192.4 666 191.9 663.8 190.8C661.5 189.7 659.6 188.3 657.9 186.6C656.2 184.8 654.9 182.9 653.9 180.8L659.6 176.8C660.4 178.9 661.4 180.4 662.6 181.7Z" fill="#F0F0F0"/>
<path d="M702.6 181.7C703.7 183 705 184 706.4 184.7C707.8 185.4 709.3 185.8 711 185.8C713.1 185.8 714.7 185.2 716 184.1C717.3 183 717.9 181.5 717.9 179.7C717.9 178.1 717.5 176.7 716.7 175.7C715.9 174.7 714.8 173.8 713.3 173.1C711.8 172.4 710.2 171.7 708.3 171C707.2 170.6 705.9 170.1 704.6 169.4C703.2 168.7 701.9 167.9 700.7 166.9C699.5 165.9 698.4 164.6 697.6 163.2C696.8 161.7 696.4 159.9 696.4 157.8C696.4 155.4 697 153.3 698.3 151.4C699.5 149.6 701.2 148.1 703.4 147.1C705.6 146.1 708 145.5 710.7 145.5C713.4 145.5 715.7 146 717.7 147C719.7 148 721.4 149.2 722.7 150.6C724.1 152.1 725.1 153.6 725.9 155.2L719.8 158.7C719.2 157.6 718.5 156.5 717.6 155.6C716.7 154.6 715.7 153.9 714.6 153.3C713.5 152.7 712.1 152.4 710.6 152.4C708.5 152.4 706.9 152.9 705.9 153.9C704.9 154.9 704.4 156 704.4 157.3C704.4 158.5 704.8 159.5 705.5 160.4C706.2 161.3 707.3 162.2 708.8 163C710.3 163.8 712.3 164.7 714.7 165.5C716.1 166 717.4 166.6 718.8 167.3C720.2 168 721.4 168.9 722.5 170C723.6 171.1 724.5 172.4 725.2 173.8C725.9 175.3 726.2 177 726.2 179C726.2 181.1 725.8 183 724.9 184.7C724 186.4 722.9 187.8 721.5 188.9C720.1 190 718.5 190.9 716.7 191.5C714.9 192.1 713 192.4 711.1 192.4C708.5 192.4 706 191.9 703.8 190.8C701.5 189.7 699.6 188.3 697.9 186.6C696.2 184.8 694.9 182.9 693.9 180.8L699.6 176.8C700.4 178.9 701.4 180.4 702.6 181.7Z" fill="#F0F0F0"/>
<path d="M727.8 128H0.399902V130H727.8V128Z" fill="#F0F0F0"/>
</svg>
