<svg width="218" height="35" viewBox="40 0 218 35" fill="none" xmlns="http://www.w3.org/2000/svg">
  <mask id="mask0_129_316" style="mask-type:luminance" maskUnits="userSpaceOnUse" x="0" y="0"
    width="218" height="35">
    <path d="M218 0H0V34.8552H218V0Z" fill="white" />
  </mask>
  <g mask="url(#mask0_129_316)">
    <mask id="mask1_129_316" style="mask-type:luminance" maskUnits="userSpaceOnUse" x="-15845"
      y="-15591" width="31503" height="31503">
      <path d="M15657.6 -15590.4H-15844.8V15911.9H15657.6V-15590.4Z" fill="white" />
    </mask>
    <g mask="url(#mask1_129_316)">
      <path
        d="M191.302 4.03444C188.735 4.03444 186.644 6.12066 186.644 8.69237C186.644 11.2641 188.73 13.3503 191.302 13.3503C193.874 13.3503 195.96 11.2641 195.96 8.69237C195.96 6.12066 193.869 4.03444 191.302 4.03444ZM153.928 20.3348C153.928 14.8116 153.423 10.346 152.798 10.346C152.173 10.346 151.669 14.8116 151.669 20.3348C151.669 25.858 152.173 30.3189 152.798 30.3189C153.423 30.3429 153.928 25.8532 153.928 20.3348ZM163.455 20.3348C163.455 26.2137 158.677 30.9918 152.798 30.9918C146.919 30.9918 142.141 26.2137 142.141 20.3348C142.141 14.4559 146.919 9.67781 152.798 9.67781C158.677 9.70184 163.455 14.4559 163.455 20.3348ZM128.937 19.0129C128.937 19.0129 128.937 17.1622 130.162 17.0949C131.316 17.0469 131.244 18.7774 131.244 18.7774V30.8764H140.079C140.079 30.8764 140.199 18.6812 140.079 16.3547C139.959 14.0281 139.022 9.70665 134.292 9.70665C129.562 9.70665 128.937 16.595 128.937 16.595V19.0177V19.0129ZM117.823 19.0129C117.823 19.0129 117.823 17.1622 119.049 17.0949C120.202 17.0469 120.13 18.7774 120.13 18.7774V30.8764H128.99C128.99 30.8764 129.11 18.6812 128.99 16.3547C128.869 14.0281 127.932 9.70665 123.202 9.70665C118.472 9.70665 117.847 16.595 117.847 16.595V19.0177H117.823V19.0129ZM209.381 24.3919V14.0233C209.069 13.6147 208.612 13.2301 208.107 13.2301C207.098 13.2301 206.381 16.5662 206.381 20.2627C206.381 23.9593 207.078 25.9782 208.396 25.9061C208.804 25.882 209.117 25.2571 209.381 24.3919ZM217.639 10.2258V30.8957H210.15L209.501 25.8051C208.684 27.9154 206.934 31.1601 203.617 31.136C198.695 31.088 196.825 25.1802 196.825 19.9022C196.825 14.6242 198.964 9.91815 203.377 9.74991C206.617 9.62974 208.516 11.9851 209.352 13.3744V13.134L209.833 10.1825H217.635V10.2306L217.639 10.2258ZM83.4197 24.3919V14.0233C83.1072 13.6147 82.6506 13.2301 82.1458 13.2301C81.1364 13.2301 80.4153 16.5662 80.4153 20.2627C80.4153 23.9593 81.1123 25.9782 82.4342 25.9061C82.8669 25.882 83.1793 25.2571 83.4197 24.3919ZM91.702 10.2258V30.8957H84.2128L83.5639 25.8051C82.7467 27.9154 80.997 31.1601 77.6802 31.136C72.7579 31.088 70.888 25.1802 70.888 19.9022C70.888 14.6242 73.0271 9.91815 77.4398 9.74991C80.6797 9.62974 82.5785 11.9851 83.4149 13.3744V13.134L83.8956 10.1825H91.6972V10.2306L91.702 10.2258ZM93.4566 19.5897V30.8957H102.989V24.2477C102.989 21.128 100.302 19.9743 98.7635 18.3207C96.7013 16.0903 96.2927 12.7494 99.3884 9.77394C99.5085 9.6778 99.3884 9.48553 99.2441 9.50956C97.6819 9.91815 93.4566 11.4083 93.4566 15.4173V19.5945M117.342 10.2258H109.565V30.8957H117.847V16.5854L117.342 10.2258ZM173.781 19.0129C173.781 19.0129 173.781 17.1622 175.006 17.0949C176.16 17.0469 176.088 18.7774 176.088 18.7774V30.8764H184.947C184.947 30.8764 185.067 18.6812 184.947 16.3547C184.827 14.0281 183.89 9.70665 179.164 9.70665C174.439 9.70665 173.81 16.595 173.81 16.595V19.0177H173.786L173.781 19.0129ZM173.3 10.2258H165.522V30.8957H173.805V16.5854L173.3 10.2258ZM58.1207 4.49111V14.8116H54.2319V4.49111H43.3105V30.8957H54.2319V25.757H58.1207V30.8957H69.0421V4.49111H58.1207ZM195.407 13.5378L194.782 14.0425C192.763 15.7249 189.836 15.7249 187.798 14.0425L187.173 13.5378V30.8716H195.383V13.5378H195.407Z"
        fill="#224884" />
      <path
        d="M103.345 9.69703C105.849 9.69703 107.882 11.7304 107.882 14.2348C107.882 16.7392 105.849 18.7726 103.345 18.7726C100.84 18.7726 98.8068 16.7392 98.8068 14.2348C98.8068 11.7304 100.84 9.69703 103.345 9.69703Z"
        fill="#224884" />
    </g>
  </g>
</svg>
