<svg width="218" height="35" viewBox="0 0 218 35" fill="none" xmlns="http://www.w3.org/2000/svg">
<mask id="mask0_129_316" style="mask-type:luminance" maskUnits="userSpaceOnUse" x="0" y="0" width="218" height="35">
<path d="M218 0H0V34.8552H218V0Z" fill="white"/>
</mask>
<g mask="url(#mask0_129_316)">
<mask id="mask1_129_316" style="mask-type:luminance" maskUnits="userSpaceOnUse" x="-15845" y="-15591" width="31503" height="31503">
<path d="M15657.6 -15590.4H-15844.8V15911.9H15657.6V-15590.4Z" fill="white"/>
</mask>
<g mask="url(#mask1_129_316)">
<path d="M191.302 4.03444C188.735 4.03444 186.644 6.12066 186.644 8.69237C186.644 11.2641 188.73 13.3503 191.302 13.3503C193.874 13.3503 195.96 11.2641 195.96 8.69237C195.96 6.12066 193.869 4.03444 191.302 4.03444ZM153.928 20.3348C153.928 14.8116 153.423 10.346 152.798 10.346C152.173 10.346 151.669 14.8116 151.669 20.3348C151.669 25.858 152.173 30.3189 152.798 30.3189C153.423 30.3429 153.928 25.8532 153.928 20.3348ZM163.455 20.3348C163.455 26.2137 158.677 30.9918 152.798 30.9918C146.919 30.9918 142.141 26.2137 142.141 20.3348C142.141 14.4559 146.919 9.67781 152.798 9.67781C158.677 9.70184 163.455 14.4559 163.455 20.3348ZM128.937 19.0129C128.937 19.0129 128.937 17.1622 130.162 17.0949C131.316 17.0469 131.244 18.7774 131.244 18.7774V30.8764H140.079C140.079 30.8764 140.199 18.6812 140.079 16.3547C139.959 14.0281 139.022 9.70665 134.292 9.70665C129.562 9.70665 128.937 16.595 128.937 16.595V19.0177V19.0129ZM117.823 19.0129C117.823 19.0129 117.823 17.1622 119.049 17.0949C120.202 17.0469 120.13 18.7774 120.13 18.7774V30.8764H128.99C128.99 30.8764 129.11 18.6812 128.99 16.3547C128.869 14.0281 127.932 9.70665 123.202 9.70665C118.472 9.70665 117.847 16.595 117.847 16.595V19.0177H117.823V19.0129ZM209.381 24.3919V14.0233C209.069 13.6147 208.612 13.2301 208.107 13.2301C207.098 13.2301 206.381 16.5662 206.381 20.2627C206.381 23.9593 207.078 25.9782 208.396 25.9061C208.804 25.882 209.117 25.2571 209.381 24.3919ZM217.639 10.2258V30.8957H210.15L209.501 25.8051C208.684 27.9154 206.934 31.1601 203.617 31.136C198.695 31.088 196.825 25.1802 196.825 19.9022C196.825 14.6242 198.964 9.91815 203.377 9.74991C206.617 9.62974 208.516 11.9851 209.352 13.3744V13.134L209.833 10.1825H217.635V10.2306L217.639 10.2258ZM83.4197 24.3919V14.0233C83.1072 13.6147 82.6506 13.2301 82.1458 13.2301C81.1364 13.2301 80.4153 16.5662 80.4153 20.2627C80.4153 23.9593 81.1123 25.9782 82.4342 25.9061C82.8669 25.882 83.1793 25.2571 83.4197 24.3919ZM91.702 10.2258V30.8957H84.2128L83.5639 25.8051C82.7467 27.9154 80.997 31.1601 77.6802 31.136C72.7579 31.088 70.888 25.1802 70.888 19.9022C70.888 14.6242 73.0271 9.91815 77.4398 9.74991C80.6797 9.62974 82.5785 11.9851 83.4149 13.3744V13.134L83.8956 10.1825H91.6972V10.2306L91.702 10.2258ZM93.4566 19.5897V30.8957H102.989V24.2477C102.989 21.128 100.302 19.9743 98.7635 18.3207C96.7013 16.0903 96.2927 12.7494 99.3884 9.77394C99.5085 9.6778 99.3884 9.48553 99.2441 9.50956C97.6819 9.91815 93.4566 11.4083 93.4566 15.4173V19.5945M117.342 10.2258H109.565V30.8957H117.847V16.5854L117.342 10.2258ZM173.781 19.0129C173.781 19.0129 173.781 17.1622 175.006 17.0949C176.16 17.0469 176.088 18.7774 176.088 18.7774V30.8764H184.947C184.947 30.8764 185.067 18.6812 184.947 16.3547C184.827 14.0281 183.89 9.70665 179.164 9.70665C174.439 9.70665 173.81 16.595 173.81 16.595V19.0177H173.786L173.781 19.0129ZM173.3 10.2258H165.522V30.8957H173.805V16.5854L173.3 10.2258ZM58.1207 4.49111V14.8116H54.2319V4.49111H43.3105V30.8957H54.2319V25.757H58.1207V30.8957H69.0421V4.49111H58.1207ZM195.407 13.5378L194.782 14.0425C192.763 15.7249 189.836 15.7249 187.798 14.0425L187.173 13.5378V30.8716H195.383V13.5378H195.407Z" fill="#224884"/>
<path d="M23.8375 9.62493C23.5972 9.96141 23.0684 10.4661 22.4675 10.4661C22.2512 10.4661 22.059 10.4181 21.8426 10.2498C21.5783 10.0576 21.41 9.79317 21.362 9.50475C21.2658 8.95195 21.6263 8.44722 21.6504 8.37512C21.7705 8.20687 22.0109 8.18284 22.1791 8.30301C22.3474 8.42319 22.3714 8.66354 22.2512 8.83178C22.2032 8.92792 22.0349 9.19231 22.083 9.40862C22.083 9.48073 22.1311 9.57686 22.2753 9.673C22.6839 9.96142 23.2367 9.21633 23.2367 9.21633C23.3568 9.04809 23.5972 9.02406 23.7654 9.14423C23.9096 9.21634 23.9577 9.45668 23.8375 9.62493ZM21.0543 7.92326C20.814 8.25975 20.2852 8.76448 19.6843 8.76448C19.468 8.76448 19.2757 8.71642 19.0594 8.54817C18.795 8.3559 18.6268 8.09151 18.5787 7.80309C18.4826 7.25029 18.8431 6.74557 18.8671 6.67347C18.9873 6.50522 19.2277 6.48118 19.3959 6.60135C19.5641 6.72152 19.5882 6.96188 19.468 7.10609C19.4199 7.20223 19.2517 7.4666 19.2998 7.68291C19.2998 7.75502 19.3478 7.85117 19.492 7.94731C19.9006 8.23572 20.4534 7.49064 20.4534 7.49064C20.5736 7.3224 20.814 7.29836 20.9822 7.41854C21.1264 7.53871 21.1745 7.75502 21.0543 7.92326ZM26.217 25.5407C26.1929 24.2188 25.3998 23.2142 26.1208 22.0845C26.4092 21.6039 26.962 21.3875 27.4908 21.5077C27.5629 21.5317 27.635 21.5558 27.7071 21.5798C27.635 21.2193 27.635 20.8588 27.7071 20.5223C27.8033 20.0656 28.0676 19.7051 28.4762 19.4648C28.981 19.1763 29.5578 19.2484 30.0866 19.5369C30.0625 18.8639 30.375 18.263 30.9037 17.9506C31.3844 17.6622 32.7304 17.8304 33.4707 18.8158C33.6149 15.9605 28.7887 15.7922 29.0771 13.533C29.1252 13.1244 29.3655 12.8119 29.702 12.6197C29.8462 12.5476 29.9904 12.4754 30.1827 12.4514C29.6539 12.0188 29.2213 11.5141 29.0531 10.9613C28.9329 10.5046 29.005 10.072 29.2453 9.68742C29.4617 9.37497 29.8703 9.01445 30.6874 9.01445C30.7836 9.01445 30.8557 9.01444 30.9518 9.03848C30.8316 8.62989 30.8797 8.2213 31.2402 7.76464C31.5767 7.35605 32.3458 7.23587 33.2111 7.42815C33.4514 7.47622 33.7879 7.59639 34.1725 7.78867C33.4995 5.72168 32.1055 2.62601 29.6828 1.38101C25.0008 -1.01766 21.2562 1.93381 19.8862 3.30379C16.8867 6.20719 15.4686 10.6007 16.6944 13.0763C17.2232 14.1579 18.1605 14.7347 19.4536 14.7828C22.4051 14.903 26.2218 12.312 27.2553 10.5575C27.3995 10.3171 27.6879 10.221 27.9282 10.3171C28.2647 10.4373 28.3849 10.8219 28.2167 11.1343C27.3514 12.6004 25.2652 14.206 23.03 15.1433C25.1691 18.3111 24.9527 22.3201 22.4291 24.5313C21.2754 25.5407 19.8381 26.0214 18.348 26.0214C17.1222 26.0214 15.8772 25.709 14.6995 25.0601H14.6755C14.6755 25.0601 14.6514 25.036 14.6274 25.036C14.2669 24.8437 13.9304 24.6274 13.5939 24.363C11.1712 22.6806 9.56089 20.6425 9.08019 18.6235C8.83984 17.6141 8.76774 17.4218 8.76774 16.7056C8.76774 15.3356 8.7437 14.6434 8.09477 14.5473C7.54197 14.4511 7.15741 14.9558 6.91706 15.6048C6.79689 15.9413 6.72479 16.3018 6.70075 16.6623C6.60461 17.9361 6.41234 18.2486 6.22006 18.2246C5.61919 18.1525 5.45094 17.6958 5.66725 16.5902C5.71532 16.3018 6.36426 13.8551 4.94621 13.8551C4.44148 13.8551 3.60027 14.9606 3.79255 17.4795V17.5997C3.79255 17.6157 3.78453 17.6317 3.76851 17.6477C3.75249 17.6637 3.74447 17.6798 3.74447 17.6958C3.74447 17.6958 3.72044 17.7198 3.72044 17.7439C3.72044 17.7679 3.69641 17.7679 3.69641 17.7919C3.69641 17.816 3.67237 17.816 3.67237 17.84C3.67237 17.864 3.64834 17.864 3.64834 17.8881C3.63231 17.9041 3.61629 17.9201 3.60027 17.9361C3.58424 17.9522 3.56822 17.9602 3.5522 17.9602C3.52817 17.9602 3.52816 17.9842 3.50413 17.9842C3.48009 17.9842 3.4801 18.0082 3.45606 18.0082C3.45606 18.0082 3.43203 18.0083 3.43203 18.0323H3.40799C3.38396 18.0323 3.35992 18.0323 3.35992 18.0563H3.11957C3.09554 18.0563 3.0715 18.0323 3.04747 18.0323C3.02343 18.0323 3.02343 18.0323 2.9994 18.0082C2.97536 18.0082 2.95133 17.9842 2.95133 17.9842C2.9273 17.9842 2.92729 17.9602 2.90326 17.9602C2.88724 17.9442 2.87122 17.9281 2.85519 17.9121L2.83116 17.8881C2.83116 17.8881 2.80712 17.864 2.78308 17.84C2.78308 17.816 2.75905 17.816 2.75905 17.7919C2.75905 17.7679 2.73502 17.7439 2.73502 17.7439V17.6958C2.73502 17.6958 2.73502 17.6718 2.71098 17.6477C2.56678 17.1911 2.73502 17.0469 2.83116 16.0855C2.87923 15.6288 2.97536 14.9558 2.39853 14.8597C1.82169 14.7636 1.43714 15.3164 1.07662 16.3979C0.836269 17.0949 0.66803 18.0803 0.66803 19.2052V19.3253C0.692065 21.3395 1.341 23.791 3.35511 25.8292C6.57096 29.069 10.3877 30.3669 12.5027 30.9918C15.31 31.833 26.3564 32.8665 26.2122 25.5407" fill="#224884"/>
<path d="M15.483 19.9743C15.5311 20.0945 15.8916 21.0318 16.5646 21.2962C16.6848 21.3443 16.805 21.3683 16.9251 21.3683C17.0693 21.3683 17.2376 21.3202 17.3818 21.2481C18.2951 20.7915 18.0548 19.6378 17.7904 19.0177C17.6942 18.8254 17.4779 18.7533 17.3097 18.8254C17.1174 18.9216 17.0453 19.1379 17.1174 19.3061C17.1174 19.3061 17.55 20.3156 17.0693 20.5559C16.9972 20.604 16.9251 20.604 16.853 20.58C16.5646 20.4598 16.2762 19.931 16.2041 19.6907C16.132 19.4984 15.9157 19.4023 15.7234 19.4744C15.5071 19.5705 15.4109 19.7868 15.483 19.9791M18.5595 18.7485C18.6076 18.8687 18.9681 19.806 19.6411 20.0704C19.7612 20.1185 19.8814 20.1425 20.0016 20.1425C20.1458 20.1425 20.314 20.0945 20.4582 20.0224C21.3716 19.5657 21.1312 18.412 20.8668 17.7919C20.7707 17.5997 20.5544 17.5275 20.3861 17.5997C20.1939 17.6958 20.1218 17.9121 20.1939 18.0803C20.1939 18.0803 20.6265 19.0898 20.1458 19.3302C20.0737 19.3782 20.0016 19.3782 19.9295 19.3542C19.6411 19.234 19.3526 18.7053 19.2805 18.4649C19.2084 18.2726 18.9921 18.1765 18.7998 18.2486C18.5835 18.3447 18.4874 18.5611 18.5595 18.7533M15.3148 12.5091C15.411 12.8937 15.5311 13.2542 15.6994 13.5907C16.4204 15.0327 17.7135 15.8499 19.3959 15.898H19.6122C20.3573 15.898 21.1504 15.7538 21.9388 15.5134C23.9337 18.2486 23.8616 21.7817 21.6744 23.6756C19.9439 25.1898 17.377 25.2379 15.1946 24.0602C14.9062 23.892 14.6178 23.6997 14.3294 23.5074C13.8727 23.1709 13.4641 22.8104 13.0796 22.3537C10.6809 19.5945 10.5848 15.6817 12.9113 13.6387C13.5843 13.0619 14.4015 12.6773 15.31 12.5091" fill="#224884"/>
<path d="M103.345 9.69703C105.849 9.69703 107.882 11.7304 107.882 14.2348C107.882 16.7392 105.849 18.7726 103.345 18.7726C100.84 18.7726 98.8068 16.7392 98.8068 14.2348C98.8068 11.7304 100.84 9.69703 103.345 9.69703Z" fill="#224884"/>
<path d="M5.30678 12.7975C6.86904 12.7254 8.40246 13.0619 9.48402 14.2877C10.0609 14.9366 10.9021 14.8405 11.1184 14.504C11.6712 13.6147 9.79647 11.6006 9.1235 10.9276V10.8795C9.1235 10.8074 9.14754 10.7353 9.17157 10.6873C9.19561 10.6632 9.1956 10.6152 9.21964 10.5911C9.29174 10.495 9.38788 10.4229 9.48402 10.3989C9.55612 10.3748 9.62823 10.3748 9.70033 10.3748C9.77244 10.3748 9.84455 10.3988 9.91665 10.4229C9.94068 10.4469 9.98875 10.4469 10.0128 10.471C10.9021 11.0478 11.9308 12.562 12.4836 12.7735C13.0844 13.0138 13.7334 12.6052 13.4449 11.5958C13.3488 11.2593 12.5797 9.96141 11.1424 9.17307C11.0222 9.07693 10.9742 8.88466 11.3107 8.71642C11.6471 8.54817 11.9356 8.74045 11.9596 8.74045C12.5845 9.10097 13.4738 10.2066 13.8824 10.5911C14.0747 10.7834 14.6034 11.2401 15.1322 10.9757C15.6609 10.6873 15.3004 9.19711 14.3631 8.19246C13.7622 7.54352 12.3922 5.74572 8.88795 6.0822C6.2249 6.34659 0.365234 9.05771 0.365234 16.0182C0.79786 14.1483 3.70126 12.8985 5.31159 12.8023" fill="#00C3CD"/>
<path d="M31.8556 18.9168C31.495 18.7726 31.0384 18.9648 30.9422 19.2533C30.8461 19.5657 30.9663 19.9503 31.3508 20.2627C32.5526 21.2001 32.4324 22.5172 32.3362 22.8056C32.1199 23.4065 31.8075 22.8296 31.8075 22.8296V22.8056C31.7834 22.7575 31.3749 21.9644 30.9663 21.3635C30.6538 20.9069 29.7165 20.2819 29.0723 20.4021C28.7358 20.4742 28.5676 20.8588 28.5916 21.027C28.6157 21.7 29.1925 21.7721 29.7213 22.5653C30.25 23.3584 30.0578 24.3198 29.7934 24.5842C29.6011 24.8005 29.3127 24.8005 29.2646 24.4159C29.2406 24.1996 29.1685 23.9593 29.0723 23.6949C28.9281 23.3103 28.6878 22.9498 28.3994 22.6614C27.6543 21.9644 27.1015 22.2528 26.9813 22.421C26.6208 22.9738 27.462 23.5266 27.486 25.0601C27.5101 26.7185 27.2217 33.8712 14.8582 32.2609C17.6414 33.5828 21.6744 35.0922 24.2942 34.2509C28.7839 32.8089 33.562 27.2905 33.9706 23.1373C33.9946 22.8969 34.0187 22.6566 34.0187 22.4403C33.9706 21.575 33.8264 19.7291 31.8604 18.912" fill="#0FCBFF"/>
<path d="M34.7397 21.7721C34.7638 18.7245 34.5955 17.0661 33.0573 15.773C31.5191 14.4751 29.9376 14.4751 30.226 13.6147C30.4423 12.9658 31.9805 13.2301 32.865 13.5666C33.4178 13.7589 33.514 13.4705 33.514 13.4464C33.5861 12.8936 32.9611 12.7014 31.9277 12.3168C30.6778 11.8601 29.8655 11.1391 29.9568 10.6103C30.1972 9.36054 32.8842 10.8507 33.7495 11.6438C34.0619 11.9323 34.3504 11.5717 34.1581 11.2593C33.6293 10.394 32.716 10.1296 32.1392 9.48071C31.8748 9.19229 31.7546 8.83176 32.0911 8.49528C32.5478 8.01458 35.2348 8.85581 36.052 12.0236C37.2297 16.6335 35.7155 20.2819 34.7301 21.7721" fill="#FF969F"/>
</g>
</g>
</svg>
