<svg width="513" height="485" viewBox="0 0 513 485" fill="none" xmlns="http://www.w3.org/2000/svg">
  <path
    d="M367.405 356.468C367.137 337.709 355.882 323.238 366.065 307.159C370.353 300.459 378.125 297.243 385.36 299.119C386.432 299.387 387.504 299.655 388.308 299.923C387.236 294.563 387.236 289.472 388.308 284.916C389.916 278.484 393.668 273.393 399.295 270.177C406.531 265.889 414.57 267.229 422.074 270.981C421.806 261.601 426.362 252.758 433.865 248.47C440.565 244.45 459.86 246.862 470.311 260.797C472.455 220.064 403.851 217.92 408.139 185.494C408.943 179.866 412.159 175.311 416.982 172.631C418.858 171.559 421.27 170.755 423.682 169.951C416.178 163.787 410.015 156.552 407.871 148.78C405.995 142.349 407.067 136.185 410.819 130.557C413.766 126.27 419.93 121.178 431.185 121.178C432.525 121.178 433.597 121.178 434.937 121.446C433.061 115.818 433.865 109.655 438.957 103.491C443.513 97.8635 454.5 95.9876 466.827 98.9354C470.311 99.7394 474.867 101.347 480.226 104.027C470.579 74.8169 450.748 30.5997 416.178 12.9128C349.718 -21.1211 296.658 20.6843 276.827 40.2471C234.485 82.0525 214.655 144.493 232.074 179.598C239.845 194.874 252.976 202.913 271.199 203.717C313.005 205.325 367.405 168.343 382.144 143.689C384.02 140.473 388.308 138.865 391.792 140.205C396.615 142.081 398.223 147.44 395.812 151.728C383.484 172.363 354.006 195.409 322.116 208.541C352.666 253.294 349.45 310.374 313.541 341.996C297.194 356.2 276.827 363.167 255.656 363.167C238.237 363.167 220.282 358.611 203.667 349.768H203.399C203.131 349.768 203.131 349.5 202.863 349.5C197.772 346.82 192.948 343.604 188.124 339.853C153.822 316.002 130.776 287.06 123.808 258.386C120.325 244.182 119.253 241.235 119.253 231.051C119.521 211.756 118.985 201.841 109.605 200.233C101.834 198.893 96.206 205.861 92.9902 215.508C91.3823 220.332 90.3104 225.424 90.0424 230.515C88.7025 248.738 86.0226 253.026 83.3428 252.758C75.0353 251.954 72.3555 244.986 75.3033 229.711C76.1072 225.692 85.2187 190.586 65.1199 190.586C58.1524 190.586 46.0931 206.397 48.7729 242.039C48.7729 242.307 48.7729 242.307 48.7729 242.307C48.7729 242.575 48.7729 242.843 48.7729 243.111C48.7729 243.379 48.7729 243.646 48.7729 243.914C48.7729 244.182 48.7729 244.45 48.505 244.718C48.505 244.986 48.237 245.254 48.237 245.522C48.237 245.79 47.969 246.058 47.969 246.326C47.969 246.594 47.701 246.862 47.701 246.862C47.433 247.13 47.433 247.398 47.165 247.398C46.8971 247.666 46.897 247.666 46.6291 247.934C46.3611 248.202 46.3611 248.202 46.0931 248.47C45.8251 248.738 45.8251 248.738 45.5571 249.006C45.2892 249.274 45.2892 249.274 45.0212 249.274C44.7532 249.542 44.4852 249.542 44.2172 249.542C44.2172 249.542 43.9492 249.542 43.9492 249.81H43.6812C43.4133 249.81 43.1453 250.078 42.8773 250.078C42.6093 250.078 42.3413 250.078 42.0733 250.346H41.8054C41.5374 250.346 41.5374 250.346 41.2694 250.346C41.0014 250.346 40.7334 250.346 40.4655 250.346C40.1975 250.346 39.9295 250.346 39.6615 250.346C39.3935 250.346 39.1255 250.346 39.1255 250.078C38.8575 250.078 38.5896 249.81 38.3216 249.81C38.0536 249.81 38.0536 249.542 37.7856 249.542C37.5176 249.274 37.2496 249.274 36.9817 249.006C36.7137 249.006 36.7137 248.738 36.4457 248.738C36.1777 248.47 35.9097 248.47 35.9097 248.202C35.6417 247.934 35.6417 247.934 35.3738 247.666C35.1058 247.398 35.1058 247.13 34.8378 246.862C34.8378 246.594 34.5698 246.594 34.5698 246.326C34.3018 246.058 34.3018 245.79 34.0338 245.522C34.0338 245.522 34.0338 245.254 33.7659 245.254V244.986C33.7659 244.718 33.4979 244.45 33.4979 244.182C31.354 237.751 34.0338 235.607 35.1058 221.94C35.6417 215.508 36.9817 206.129 28.9422 204.521C20.9027 202.913 15.007 211.221 10.1833 226.496C6.96751 236.411 4.55566 250.614 4.55566 266.425C4.55566 266.961 4.55566 267.497 4.55566 268.033C5.09163 296.707 14.2031 331.545 42.8773 360.487C88.7025 406.58 142.835 424.803 172.849 433.915C212.511 445.706 369.281 460.713 367.405 356.468ZM293.978 106.439C290.494 111.263 282.99 118.23 274.683 118.23C271.735 118.23 268.787 117.426 265.84 115.282C262.088 112.603 259.676 108.851 258.872 104.563C257.532 96.5236 262.624 89.556 263.16 88.7521C264.768 86.3402 268.251 85.8043 270.395 87.6801C272.807 89.288 273.343 92.7718 271.467 94.9157C270.663 95.9876 268.519 100.007 269.055 102.955C269.323 103.759 269.591 105.367 271.735 106.707C277.363 110.727 285.402 100.275 285.402 100.275C287.01 97.8635 290.494 97.3275 292.638 99.2034C295.05 100.811 295.586 104.027 293.978 106.439ZM333.639 130.29C330.156 135.113 322.652 142.081 314.345 142.081C311.397 142.081 308.449 141.277 305.501 139.133C301.749 136.453 299.337 132.701 298.534 128.414C297.194 120.374 302.285 113.139 302.821 112.603C304.429 110.191 307.913 109.655 310.057 111.531C312.469 113.139 313.005 116.622 311.129 118.766C310.325 119.838 308.181 123.858 308.717 126.806C308.985 127.61 309.253 129.218 311.397 130.557C317.024 134.577 325.064 124.126 325.064 124.126C326.672 121.714 330.156 121.178 332.299 123.054C334.711 124.662 335.247 127.878 333.639 130.29Z"
    fill="#224884" />
  <path
    d="M212.51 171.291C213.85 176.651 215.458 181.742 217.87 186.566C228.321 207.201 246.544 218.456 270.663 219.26C271.735 219.26 272.539 219.26 273.611 219.26C284.33 219.26 295.585 217.116 306.841 213.9C335.247 252.758 334.175 302.871 303.357 329.937C278.97 351.376 242.257 352.18 211.17 335.297C206.883 332.885 202.863 330.205 198.843 327.525C192.412 322.97 186.516 317.61 181.156 311.178C146.586 271.785 145.247 216.312 178.476 187.37C187.856 179.063 199.647 173.703 212.51 171.291ZM258.336 259.994C258.872 261.601 264.231 275.001 273.611 278.752C275.219 279.556 277.094 279.824 278.702 279.824C280.846 279.824 282.99 279.288 285.134 278.216C297.997 271.785 294.781 255.438 290.762 246.594C289.69 243.915 286.474 242.843 283.794 243.915C281.114 244.986 280.042 248.202 281.114 250.882C281.114 251.15 287.278 265.353 280.31 268.837C279.238 269.373 278.434 269.373 277.362 269.105C273.343 267.497 269.323 259.726 267.983 256.242C266.911 253.562 263.963 252.222 261.283 253.026C258.872 254.098 257.532 257.314 258.336 259.994ZM214.654 277.412C215.19 279.02 220.55 292.42 229.929 296.171C231.537 296.975 233.413 297.243 235.021 297.243C237.165 297.243 239.309 296.707 241.453 295.635C254.316 289.204 251.1 272.857 247.08 264.013C246.008 261.333 242.793 260.262 240.113 261.333C237.433 262.405 236.361 265.621 237.433 268.301C237.433 268.569 243.596 282.772 236.629 286.256C235.557 286.792 234.753 286.792 233.681 286.524C229.661 284.916 225.642 277.144 224.302 273.661C223.23 270.981 220.282 269.641 217.602 270.445C215.19 271.517 213.85 274.733 214.654 277.412Z"
    fill="#224884" />
  <path
    d="M70.2117 175.58C92.1863 174.508 114.161 179.599 129.704 196.75C138.011 206.13 149.803 204.79 153.019 199.698C161.058 187.371 134.26 158.697 124.612 148.781C124.612 148.513 124.344 148.245 124.612 147.977C124.612 146.905 124.88 146.101 125.416 145.029C125.684 144.493 125.952 144.225 126.22 143.689C127.292 142.35 128.632 141.546 129.972 141.01C131.044 140.742 131.848 140.474 132.92 140.474C133.992 140.474 134.796 140.742 135.868 141.278C136.404 141.546 136.672 141.814 137.208 142.082C149.803 150.121 164.542 171.56 172.313 175.044C180.889 178.527 190 172.632 185.981 158.161C184.641 153.337 173.653 135.114 153.287 123.859C151.411 122.519 150.875 119.839 155.698 117.427C160.522 115.015 164.542 117.695 164.81 117.963C173.653 123.055 186.516 138.598 192.144 144.225C194.824 146.905 202.328 153.605 209.831 149.585C217.335 145.565 212.243 124.395 198.844 109.924C190.268 100.544 170.973 74.8177 120.861 79.9094C83.0749 83.6612 0 122.251 0 221.137C5.89564 194.338 47.4331 176.651 70.2117 175.58Z"
    fill="#00C3CD" />
  <path
    d="M447.264 262.405C442.172 260.261 435.741 262.941 434.401 267.229C433.061 271.784 434.669 277.144 440.029 281.432C456.911 294.831 455.572 313.59 453.964 317.61C451.016 326.185 446.46 318.145 446.46 318.145V317.877C445.924 317.342 440.564 305.818 434.401 297.243C429.845 290.811 416.714 281.7 407.335 283.576C402.511 284.648 400.367 290.275 400.367 292.419C400.635 302.066 408.942 302.87 416.446 314.126C423.949 325.381 421.27 338.78 417.518 342.8C414.57 345.748 410.818 345.748 410.282 340.388C410.014 337.172 408.942 333.689 407.603 330.205C405.459 324.845 402.243 319.753 397.955 315.734C387.504 305.818 379.464 309.838 378.124 312.25C373.033 320.289 385.092 328.061 385.092 349.768C385.36 373.35 381.34 474.648 205.543 452.137C244.937 470.896 302.553 492.603 339.535 480.543C403.047 459.909 471.383 381.658 477.01 322.701C477.546 319.217 477.546 316.002 477.814 312.786C477.546 300.191 475.402 273.928 447.264 262.405Z"
    fill="#0FCBFF" />
  <path
    d="M488.265 302.87C488.533 259.725 486.121 236.142 464.415 217.651C442.44 199.161 419.93 199.161 424.217 187.101C427.433 177.99 449.14 181.742 461.735 186.297C469.507 189.245 470.846 184.689 470.846 184.421C471.918 176.65 462.807 173.702 448.336 168.342C430.649 161.911 419.126 151.46 420.466 144.224C423.949 126.269 462.003 147.708 474.33 158.695C478.886 162.715 482.638 157.623 479.958 153.067C472.454 140.74 459.591 136.988 451.284 127.609C447.532 123.589 445.924 118.498 450.48 113.674C456.911 106.974 494.965 118.766 506.756 163.787C523.639 229.979 502.468 281.699 488.265 302.87Z"
    fill="#FF969F" />
</svg>
